<svg xmlns="http://www.w3.org/2000/svg" width="128" height="128" viewBox="0 0 128 128" role="img" aria-label="Asset-Energy AI">
  <defs>
    <linearGradient id="g" x1="0" y1="0" x2="1" y2="1">
      <stop offset="0" stop-color="#76e6c8"/>
      <stop offset="1" stop-color="#7aa7ff"/>
    </linearGradient>
  </defs>
  <rect x="8" y="8" width="112" height="112" rx="28" fill="url(#g)"/>
  <rect x="8" y="8" width="112" height="112" rx="28" fill="rgba(0,0,0,0.18)"/>
  <path d="M36 84 L50 44 H64 L78 84 H66 L63 74 H51 L48 84 Z M54 64 H60 L57 54 Z" fill="#041017"/>
  <path d="M82 44 H92 C100 44 106 50 106 58 C106 66 100 72 92 72 H90 V84 H82 Z M90 52 V64 H92 C95.6 64 98 61.6 98 58 C98 54.4 95.6 52 92 52 Z" fill="#041017"/>
</svg>

